<svg width="15" height="17" viewBox="0 0 15 17" fill="none" xmlns="http://www.w3.org/2000/svg">
<path d="M2.51924 16.8125C2.07725 16.8125 1.70312 16.6593 1.39687 16.3531C1.09063 16.0468 0.9375 15.6727 0.9375 15.2307V5.26924C0.9375 4.82725 1.09063 4.45313 1.39687 4.14688C1.70312 3.84063 2.07725 3.6875 2.51924 3.6875H4.21875V3.46875C4.21875 2.56234 4.53902 1.78886 5.17957 1.14832C5.82009 0.507773 6.59357 0.1875 7.49998 0.1875C8.40639 0.1875 9.17986 0.507773 9.82039 1.14832C10.4609 1.78886 10.7812 2.56234 10.7812 3.46875V3.6875H12.4807C12.9227 3.6875 13.2968 3.84063 13.6031 4.14688C13.9093 4.45313 14.0625 4.82725 14.0625 5.26924V15.2307C14.0625 15.6727 13.9093 16.0468 13.6031 16.3531C13.2968 16.6593 12.9227 16.8125 12.4807 16.8125H2.51924ZM2.51924 15.5H12.4807C12.548 15.5 12.6097 15.4719 12.6658 15.4158C12.7219 15.3597 12.75 15.298 12.75 15.2307V5.26924C12.75 5.20192 12.7219 5.14021 12.6658 5.08411C12.6097 5.02802 12.548 4.99998 12.4807 4.99998H10.7812V6.96875C10.7812 7.15496 10.7184 7.31089 10.5928 7.43653C10.4671 7.56216 10.3112 7.62498 10.125 7.62498C9.93876 7.62498 9.78284 7.56216 9.6572 7.43653C9.53157 7.31089 9.46875 7.15496 9.46875 6.96875V4.99998H5.53121V6.96875C5.53121 7.15496 5.46839 7.31089 5.34275 7.43653C5.21712 7.56216 5.06119 7.62498 4.87498 7.62498C4.68876 7.62498 4.53284 7.56216 4.4072 7.43653C4.28157 7.31089 4.21875 7.15496 4.21875 6.96875V4.99998H2.51924C2.45192 4.99998 2.39021 5.02802 2.33411 5.08411C2.27802 5.14021 2.24998 5.20192 2.24998 5.26924V15.2307C2.24998 15.298 2.27802 15.3597 2.33411 15.4158C2.39021 15.4719 2.45192 15.5 2.51924 15.5ZM5.53121 3.6875H9.46875V3.46875C9.46875 2.92018 9.27776 2.45492 8.89578 2.07295C8.51381 1.69097 8.04854 1.49998 7.49998 1.49998C6.95141 1.49998 6.48614 1.69097 6.10418 2.07295C5.7222 2.45492 5.53121 2.92018 5.53121 3.46875V3.6875Z" fill="black"/>
</svg>
