<svg width="21" height="21" viewBox="0 0 21 21" fill="none" xmlns="http://www.w3.org/2000/svg">
<path d="M5.51924 18.8125C5.07725 18.8125 4.70312 18.6593 4.39687 18.3531C4.09063 18.0468 3.9375 17.6727 3.9375 17.2307V7.26924C3.9375 6.82725 4.09063 6.45313 4.39687 6.14688C4.70312 5.84063 5.07725 5.6875 5.51924 5.6875H7.21875V5.46875C7.21875 4.56234 7.53902 3.78886 8.17957 3.14832C8.82009 2.50777 9.59357 2.1875 10.5 2.1875C11.4064 2.1875 12.1799 2.50777 12.8204 3.14832C13.4609 3.78886 13.7812 4.56234 13.7812 5.46875V5.6875H15.4807C15.9227 5.6875 16.2968 5.84063 16.6031 6.14688C16.9093 6.45313 17.0625 6.82725 17.0625 7.26924V17.2307C17.0625 17.6727 16.9093 18.0468 16.6031 18.3531C16.2968 18.6593 15.9227 18.8125 15.4807 18.8125H5.51924ZM5.51924 17.5H15.4807C15.548 17.5 15.6097 17.4719 15.6658 17.4158C15.7219 17.3597 15.75 17.298 15.75 17.2307V7.26924C15.75 7.20192 15.7219 7.14021 15.6658 7.08411C15.6097 7.02802 15.548 6.99998 15.4807 6.99998H13.7812V8.96875C13.7812 9.15496 13.7184 9.31089 13.5928 9.43653C13.4671 9.56216 13.3112 9.62498 13.125 9.62498C12.9388 9.62498 12.7828 9.56216 12.6572 9.43653C12.5316 9.31089 12.4687 9.15496 12.4687 8.96875V6.99998H8.53121V8.96875C8.53121 9.15496 8.46839 9.31089 8.34275 9.43653C8.21712 9.56216 8.06119 9.62498 7.87498 9.62498C7.68876 9.62498 7.53284 9.56216 7.4072 9.43653C7.28157 9.31089 7.21875 9.15496 7.21875 8.96875V6.99998H5.51924C5.45192 6.99998 5.39021 7.02802 5.33411 7.08411C5.27802 7.14021 5.24998 7.20192 5.24998 7.26924V17.2307C5.24998 17.298 5.27802 17.3597 5.33411 17.4158C5.39021 17.4719 5.45192 17.5 5.51924 17.5ZM8.53121 5.6875H12.4687V5.46875C12.4687 4.92018 12.2778 4.45492 11.8958 4.07295C11.5138 3.69097 11.0485 3.49998 10.5 3.49998C9.95141 3.49998 9.48614 3.69097 9.10418 4.07295C8.7222 4.45492 8.53121 4.92018 8.53121 5.46875V5.6875Z" fill="black"/>
</svg>
