<svg width="16" height="15" viewBox="0 0 16 15" fill="none" xmlns="http://www.w3.org/2000/svg">
<path d="M8.00001 9.59302C8.62016 9.59302 9.1473 9.38953 9.58141 8.98255C10.0155 8.57557 10.2326 8.08139 10.2326 7.49999C10.2326 6.9186 10.0155 6.42441 9.58141 6.01743C9.1473 5.61045 8.62016 5.40697 8.00001 5.40697C7.37985 5.40697 6.85272 5.61045 6.41861 6.01743C5.9845 6.42441 5.76745 6.9186 5.76745 7.49999C5.76745 8.08139 5.9845 8.57557 6.41861 8.98255C6.85272 9.38953 7.37985 9.59302 8.00001 9.59302ZM8.00001 10.6395C7.07074 10.6395 6.28029 10.3341 5.62864 9.72315C4.977 9.11223 4.65119 8.37118 4.65119 7.49999C4.65119 6.6288 4.977 5.88775 5.62864 5.27683C6.28029 4.66592 7.07074 4.36047 8.00001 4.36047C8.92928 4.36047 9.71973 4.66592 10.3714 5.27683C11.023 5.88775 11.3488 6.6288 11.3488 7.49999C11.3488 8.37118 11.023 9.11223 10.3714 9.72315C9.71973 10.3341 8.92928 10.6395 8.00001 10.6395ZM0.55814 8.02323C0.400001 8.02323 0.267448 7.97307 0.160484 7.87274C0.0534946 7.7724 0 7.64808 0 7.49976C0 7.35144 0.0534884 7.22719 0.160465 7.12701C0.26743 7.02684 0.399982 6.97675 0.558122 6.97675H2.23256C2.39069 6.97675 2.52324 7.02692 2.63022 7.12724C2.73721 7.22758 2.7907 7.3519 2.7907 7.50022C2.7907 7.64854 2.73721 7.77279 2.63024 7.87297C2.52326 7.97314 2.39071 8.02323 2.23258 8.02323H0.55814ZM13.7674 8.02323C13.6093 8.02323 13.4768 7.97307 13.3698 7.87274C13.2628 7.7724 13.2093 7.64808 13.2093 7.49976C13.2093 7.35144 13.2628 7.22719 13.3698 7.12701C13.4768 7.02684 13.6093 6.97675 13.7674 6.97675H15.4419C15.6 6.97675 15.7326 7.02692 15.8396 7.12724C15.9465 7.22758 16 7.3519 16 7.50022C16 7.64854 15.9465 7.77279 15.8396 7.87297C15.7326 7.97314 15.6 8.02323 15.4419 8.02323H13.7674ZM7.99977 2.61627C7.84155 2.61627 7.70902 2.56612 7.60217 2.46583C7.49531 2.36554 7.44189 2.24127 7.44189 2.09303V0.523239C7.44189 0.374983 7.4954 0.25071 7.60241 0.150419C7.70944 0.05014 7.84205 0 8.00025 0C8.15847 0 8.291 0.05014 8.39785 0.150419C8.5047 0.25071 8.55813 0.374983 8.55813 0.523239V2.09303C8.55813 2.24127 8.50462 2.36554 8.39761 2.46583C8.29058 2.56612 8.15797 2.61627 7.99977 2.61627ZM7.99977 15C7.84155 15 7.70902 14.9498 7.60217 14.8495C7.49531 14.7493 7.44189 14.625 7.44189 14.4767V12.907C7.44189 12.7587 7.4954 12.6344 7.60241 12.5342C7.70944 12.4339 7.84205 12.3837 8.00025 12.3837C8.15847 12.3837 8.291 12.4339 8.39785 12.5342C8.5047 12.6344 8.55813 12.7587 8.55813 12.907V14.4767C8.55813 14.625 8.50462 14.7493 8.39761 14.8495C8.29058 14.9498 8.15797 15 7.99977 15ZM3.5392 4.03977L2.60324 3.18646C2.49257 3.08985 2.43913 2.96843 2.44294 2.8222C2.44676 2.67596 2.50092 2.54872 2.60542 2.4405C2.7194 2.33227 2.85319 2.27815 3.00679 2.27815C3.16041 2.27815 3.29112 2.33227 3.39893 2.4405L4.31628 3.31127C4.42409 3.4195 4.478 3.54205 4.478 3.67889C4.478 3.81574 4.42528 3.93828 4.31986 4.0465C4.21444 4.15472 4.08684 4.20592 3.93705 4.20011C3.78725 4.1943 3.65464 4.14084 3.5392 4.03977ZM12.6011 12.5594L11.6837 11.6887C11.5759 11.5805 11.522 11.4562 11.522 11.3157C11.522 11.1753 11.5759 11.0546 11.6837 10.9535C11.7844 10.8453 11.9102 10.7941 12.0612 10.7999C12.2122 10.8057 12.3454 10.8591 12.4608 10.9602L13.3968 11.8135C13.5075 11.9101 13.5609 12.0315 13.5571 12.1778C13.5533 12.324 13.4991 12.4512 13.3946 12.5595C13.2806 12.6677 13.1468 12.7218 12.9932 12.7218C12.8396 12.7218 12.7089 12.6677 12.6011 12.5594ZM11.6837 4.04985C11.5683 3.95102 11.5137 3.83139 11.5199 3.69096C11.5261 3.55053 11.5831 3.42621 11.6909 3.31799L12.6011 2.44052C12.7041 2.33676 12.8337 2.28667 12.9896 2.29024C13.1456 2.29382 13.2813 2.3446 13.3968 2.44256C13.5122 2.54942 13.57 2.67485 13.57 2.81885C13.57 2.96286 13.5122 3.08541 13.3968 3.18648L12.468 4.0465C12.3525 4.14757 12.2218 4.1981 12.0758 4.1981C11.9299 4.1981 11.7992 4.14869 11.6837 4.04985ZM2.60324 12.5609C2.48779 12.4517 2.43007 12.3251 2.43007 12.1811C2.43007 12.0371 2.48779 11.9146 2.60324 11.8135L3.53204 10.9535C3.64749 10.8524 3.7801 10.8019 3.92988 10.8019C4.07968 10.8019 4.20848 10.8524 4.31628 10.9535C4.42696 11.0478 4.47919 11.1658 4.47299 11.3073C4.46679 11.4489 4.41217 11.5738 4.30912 11.682L3.39893 12.5595C3.29112 12.6677 3.16041 12.72 3.00679 12.7164C2.85319 12.7129 2.71868 12.661 2.60324 12.5609Z" fill="#4F4F4F"/>
</svg>
