<svg width="176" height="24" viewBox="0 0 176 24" fill="none" xmlns="http://www.w3.org/2000/svg">
<path d="M0.5 0.60376L10.3512 0.60376C13.4048 0.60376 15.6938 1.01552 17.2215 1.83905C18.7474 2.66258 19.5121 4.05186 19.5121 6.00687C19.5121 9.01725 17.7007 10.8166 14.0761 11.41V11.4757C18.4689 12.0242 20.6661 13.9359 20.6661 17.2093C20.6661 19.6038 19.7647 21.2785 17.9637 22.2335C16.1626 23.1885 13.5709 23.666 10.1886 23.666H0.5L0.5 23.0397H2.64187L2.64187 1.23006L0.5 1.23006L0.5 0.60376ZM9.06747 1.23006L9.06747 11.3788H9.92387C11.0657 11.3788 11.8616 11.0328 12.3131 10.3408C12.763 9.64874 12.9879 8.58992 12.9879 7.16085L12.9879 5.61241C12.9879 3.98784 12.7907 2.85116 12.3945 2.20238C11.9983 1.55532 11.2405 1.23006 10.1211 1.23006L9.06747 1.23006ZM9.06747 12.0051L9.06747 23.0432H10.6159C11.8235 23.0432 12.6695 22.6262 13.1522 21.7906C13.6349 20.9567 13.8772 19.7266 13.8772 18.1003L13.8772 16.3546C13.8772 14.9048 13.5813 13.8183 12.9879 13.0934C12.3945 12.3685 11.3408 12.0051 9.82526 12.0051H9.06747Z" fill="black"/>
<path d="M22.3438 0.60376L32.3922 0.60376V1.23006L30.5808 1.23006L30.5808 23.0415H32.3922V23.6678H22.3437V23.0415H24.1552L24.1552 1.23006L22.3438 1.23006V0.60376Z" fill="black"/>
<path d="M45.5078 23.998C41.84 23.998 39.0995 23.0049 37.2864 21.0153C35.4749 19.0274 34.5684 16.1503 34.5684 12.3821C34.5684 8.61394 35.5407 5.65027 37.4836 3.48591C39.4282 1.32328 42.1791 0.240234 45.7379 0.240234C49.2967 0.240234 51.9818 1.26792 53.7933 3.32155C55.6047 5.37518 56.5113 8.29213 56.5113 12.0689C56.5113 15.8458 55.5943 18.78 53.7604 20.8665C51.9265 22.953 49.1756 23.9963 45.5061 23.9963L45.5078 23.998ZM49.7258 13.4876V11.0499C49.7258 7.03089 49.5286 4.49283 49.1324 3.4392C48.6929 2.23158 48.0666 1.48418 47.2552 1.19871C46.7933 1.02397 46.2344 0.935736 45.5753 0.935736C44.9161 0.935736 44.3504 1.02397 43.878 1.19871C43.4057 1.37518 43.0165 1.68141 42.7085 2.12086C42.4005 2.5603 42.1531 3.02224 41.9663 3.50494C41.7794 3.98764 41.6306 4.6693 41.5216 5.54819C41.3902 6.82328 41.3244 8.70044 41.3244 11.1831V13.5551C41.3244 16.235 41.4282 18.1399 41.6376 19.2714C41.8469 20.4029 42.1047 21.2108 42.4126 21.6935C43.0926 22.7696 44.1479 23.3077 45.5753 23.3077C47.3106 23.3077 48.4369 22.5776 48.9524 21.1157C49.468 19.6555 49.7275 17.1122 49.7275 13.4876H49.7258Z" fill="black"/>
<path d="M58.5547 0.60376L70.4163 0.60376V1.32867L66.9232 1.32867V22.9429H68.1101C69.9768 22.9429 71.4647 22.3719 72.5737 21.2301C73.6827 20.0882 74.809 18.3304 75.9509 15.9584H76.6429L76.0166 23.6678L58.5547 23.6678V22.9429H60.4993V1.32867L58.5547 1.32867V0.60376Z" fill="black"/>
<path d="M89.4609 23.998C85.7931 23.998 83.0526 23.0049 81.2395 21.0153C79.4281 19.0274 78.5215 16.1503 78.5215 12.3821C78.5215 8.61394 79.4938 5.65027 81.4367 3.48591C83.3813 1.32328 86.1322 0.240234 89.691 0.240234C93.2499 0.240234 95.935 1.26792 97.7464 3.32155C99.5578 5.37518 100.464 8.29213 100.464 12.0689C100.464 15.8458 99.5474 18.78 97.7135 20.8665C95.8796 22.953 93.1287 23.9963 89.4592 23.9963L89.4609 23.998ZM93.6789 13.4876V11.0499C93.6789 7.03089 93.4817 4.49283 93.0855 3.4392C92.6461 2.23158 92.0197 1.48418 91.2083 1.19871C90.7464 1.02397 90.1876 0.935736 89.5284 0.935736C88.8692 0.935736 88.3035 1.02397 87.8312 1.19871C87.3589 1.37518 86.9696 1.68141 86.6616 2.12086C86.3537 2.5603 86.1063 3.02224 85.9194 3.50494C85.7326 3.98764 85.5838 4.6693 85.4748 5.54819C85.3433 6.82328 85.2775 8.70044 85.2775 11.1831V13.5551C85.2775 16.235 85.3813 18.1399 85.5907 19.2714C85.8 20.4029 86.0578 21.2108 86.3658 21.6935C87.0457 22.7696 88.1011 23.3077 89.5284 23.3077C91.2637 23.3077 92.39 22.5776 92.9056 21.1157C93.4211 19.6555 93.6807 17.1122 93.6807 13.4876H93.6789Z" fill="black"/>
<path d="M114.666 23.3425C115.742 23.3425 116.429 23.1453 116.725 22.7491C117.021 22.3529 117.169 21.6833 117.169 20.7387V14.3459H115.06V13.621L124.55 13.621V14.3459H123.265V23.6383H122.77C122.374 23.0899 121.815 22.8148 121.09 22.8148C120.782 22.8148 119.865 23.012 118.339 23.4082C116.811 23.8044 115.51 24.0017 114.434 24.0017C110.853 24.0017 108.08 23.0363 106.114 21.102C104.149 19.1695 103.166 16.2646 103.166 12.3875C103.166 8.51031 104.192 5.51723 106.247 3.40823C108.301 1.29924 111.062 0.245605 114.535 0.245605C115.874 0.245605 117.22 0.416885 118.571 0.755986C119.922 1.09682 120.708 1.26637 120.927 1.26637C121.147 1.26637 121.311 1.21619 121.422 1.11758C121.531 1.01896 121.652 0.849412 121.784 0.607197L122.145 0.607197L122.408 7.75772H121.815C120.739 5.62796 119.657 3.95149 118.569 2.73349C117.483 1.51377 116.268 0.904775 114.929 0.904775C111.567 0.904775 109.887 4.18851 109.887 10.756V13.3581C109.887 16.6522 110.299 19.1401 111.123 20.82C111.946 22.4999 113.126 23.3408 114.664 23.3408L114.666 23.3425Z" fill="black"/>
<path d="M126.463 0.60376L136.511 0.60376V1.23006L134.7 1.23006V23.0415H136.511V23.6678H126.463V23.0415H128.274V1.23006L126.463 1.23006V0.60376Z" fill="black"/>
<path d="M175.469 0.63208H144.5V24.002H175.469V0.63208Z" fill="#2B8C57"/>
<path d="M155.431 15.1413L156.891 5.44263H159.87V19.1017H157.845V9.30551L156.365 19.1017H154.341L152.744 9.44207V19.1017H150.875V5.44263H153.854L155.431 15.1413Z" fill="white"/>
<path d="M162.889 5.44263H166.276C168.418 5.44263 169.469 6.63271 169.469 8.81777V15.7266C169.469 17.9116 168.418 19.1017 166.276 19.1017H162.889V5.44263ZM165.03 7.39358V17.1508H166.237C166.919 17.1508 167.328 16.7996 167.328 15.8241V8.72022C167.328 7.74475 166.919 7.39358 166.237 7.39358H165.03Z" fill="white"/>
</svg>
