<svg width="15" height="15" viewBox="0 0 15 15" fill="none" xmlns="http://www.w3.org/2000/svg">
<path d="M7.65254 15C6.59229 15 5.59831 14.7989 4.67059 14.3968C3.74287 13.9946 2.93358 13.4481 2.24272 12.7573C1.55188 12.0664 1.00538 11.2571 0.603237 10.3294C0.201079 9.40169 0 8.40771 0 7.34746C0 5.60193 0.532192 4.04726 1.59658 2.68344C2.66095 1.31962 4.03728 0.425142 5.72557 0C5.57842 1.27951 5.71026 2.52018 6.12109 3.72202C6.53193 4.92387 7.19366 5.9811 8.10628 6.89372C9.0189 7.80634 10.0761 8.46807 11.278 8.87891C12.4798 9.28974 13.7205 9.42158 15 9.27443C14.583 10.9627 13.6906 12.3391 12.3227 13.4034C10.9548 14.4678 9.39807 15 7.65254 15V15ZM7.65254 13.8043C8.82168 13.8043 9.90447 13.512 10.9009 12.9275C11.8973 12.3429 12.6812 11.5384 13.2525 10.514C12.1099 10.4075 11.0271 10.1182 10.0041 9.64588C8.98111 9.17358 8.0644 8.53166 7.25397 7.72012C6.44354 6.90856 5.79919 5.99257 5.3209 4.97213C4.84262 3.95168 4.55697 2.87018 4.46398 1.72761C3.44098 2.29889 2.64051 3.08607 2.06258 4.08914C1.48466 5.09221 1.19569 6.17832 1.19569 7.34746C1.19569 9.14103 1.82344 10.6656 3.07894 11.9211C4.33444 13.1766 5.85897 13.8043 7.65254 13.8043Z" fill="#4F4F4F"/>
</svg>
