<svg width="21" height="21" viewBox="0 0 21 21" fill="none" xmlns="http://www.w3.org/2000/svg">
<path d="M5.27019 15.1308C6.01394 14.5788 6.82415 14.143 7.70083 13.8233C8.57751 13.5036 9.51056 13.3438 10.5 13.3438C11.4894 13.3438 12.4224 13.5036 13.2991 13.8233C14.1758 14.143 14.986 14.5788 15.7298 15.1308C16.2738 14.5328 16.7049 13.8407 17.0229 13.0543C17.341 12.2679 17.5 11.4165 17.5 10.5C17.5 8.5604 16.8182 6.90883 15.4547 5.54529C14.0911 4.18175 12.4396 3.49998 10.5 3.49998C8.5604 3.49998 6.90883 4.18175 5.54529 5.54529C4.18175 6.90883 3.49998 8.5604 3.49998 10.5C3.49998 11.4165 3.65899 12.2679 3.97703 13.0543C4.29506 13.8407 4.72612 14.5328 5.27019 15.1308ZM10.5002 11.1562C9.70135 11.1562 9.02763 10.882 8.47908 10.3336C7.93053 9.78525 7.65625 9.11162 7.65625 8.31274C7.65625 7.51385 7.93044 6.84013 8.47882 6.29158C9.02721 5.74303 9.70084 5.46875 10.4997 5.46875C11.2986 5.46875 11.9723 5.74294 12.5209 6.29132C13.0694 6.83971 13.3437 7.51334 13.3437 8.31222C13.3437 9.11111 13.0695 9.78483 12.5211 10.3334C11.9727 10.8819 11.2991 11.1562 10.5002 11.1562ZM10.5 18.8125C9.34565 18.8125 8.26284 18.5954 7.25156 18.1612C6.24027 17.7271 5.3605 17.1359 4.61226 16.3877C3.86403 15.6395 3.27285 14.7597 2.83872 13.7484C2.40457 12.7371 2.1875 11.6543 2.1875 10.5C2.1875 9.34565 2.40457 8.26284 2.83872 7.25156C3.27285 6.24027 3.86403 5.3605 4.61226 4.61226C5.3605 3.86403 6.24027 3.27285 7.25156 2.83872C8.26284 2.40457 9.34565 2.1875 10.5 2.1875C11.6543 2.1875 12.7371 2.40457 13.7484 2.83872C14.7597 3.27285 15.6395 3.86403 16.3877 4.61226C17.1359 5.3605 17.7271 6.24027 18.1612 7.25156C18.5954 8.26284 18.8125 9.34565 18.8125 10.5C18.8125 11.6543 18.5954 12.7371 18.1612 13.7484C17.7271 14.7597 17.1359 15.6395 16.3877 16.3877C15.6395 17.1359 14.7597 17.7271 13.7484 18.1612C12.7371 18.5954 11.6543 18.8125 10.5 18.8125ZM10.5 17.5C11.2897 17.5 12.0511 17.3729 12.7842 17.1189C13.5173 16.8648 14.1683 16.5094 14.737 16.0529C14.1683 15.6131 13.5258 15.2704 12.8095 15.0247C12.0932 14.7791 11.3234 14.6562 10.5 14.6562C9.67657 14.6562 8.90533 14.7776 8.18626 15.0205C7.46719 15.2634 6.82608 15.6075 6.26294 16.0529C6.83169 16.5094 7.48262 16.8648 8.21572 17.1189C8.94881 17.3729 9.71023 17.5 10.5 17.5ZM10.5 9.84375C10.9352 9.84375 11.2993 9.69736 11.5921 9.40457C11.8849 9.11176 12.0312 8.74773 12.0312 8.31248C12.0312 7.87722 11.8849 7.5132 11.5921 7.22039C11.2993 6.9276 10.9352 6.78121 10.5 6.78121C10.0647 6.78121 9.7007 6.9276 9.40789 7.22039C9.1151 7.5132 8.96871 7.87722 8.96871 8.31248C8.96871 8.74773 9.1151 9.11176 9.40789 9.40457C9.7007 9.69736 10.0647 9.84375 10.5 9.84375Z" fill="black"/>
</svg>
