<svg width="17" height="17" viewBox="0 0 17 17" fill="none" xmlns="http://www.w3.org/2000/svg">
<path d="M3.27019 13.1308C4.01394 12.5788 4.82415 12.143 5.70083 11.8233C6.57751 11.5036 7.51056 11.3438 8.49998 11.3438C9.4894 11.3438 10.4224 11.5036 11.2991 11.8233C12.1758 12.143 12.986 12.5788 13.7298 13.1308C14.2738 12.5328 14.7049 11.8407 15.0229 11.0543C15.341 10.2679 15.5 9.41648 15.5 8.49998C15.5 6.5604 14.8182 4.90883 13.4547 3.54529C12.0911 2.18175 10.4396 1.49998 8.49998 1.49998C6.56039 1.49998 4.90883 2.18175 3.54529 3.54529C2.18175 4.90883 1.49998 6.5604 1.49998 8.49998C1.49998 9.41648 1.65899 10.2679 1.97703 11.0543C2.29506 11.8407 2.72612 12.5328 3.27019 13.1308ZM8.50024 9.15621C7.70135 9.15621 7.02763 8.88202 6.47908 8.33364C5.93053 7.78525 5.65625 7.11162 5.65625 6.31274C5.65625 5.51385 5.93044 4.84013 6.47882 4.29158C7.02721 3.74303 7.70084 3.46875 8.49972 3.46875C9.29861 3.46875 9.97233 3.74294 10.5209 4.29132C11.0694 4.83971 11.3437 5.51334 11.3437 6.31222C11.3437 7.11111 11.0695 7.78483 10.5211 8.33338C9.97275 8.88193 9.29912 9.15621 8.50024 9.15621ZM8.49998 16.8125C7.34565 16.8125 6.26284 16.5954 5.25156 16.1612C4.24027 15.7271 3.3605 15.1359 2.61226 14.3877C1.86403 13.6395 1.27285 12.7597 0.838719 11.7484C0.404573 10.7371 0.1875 9.65431 0.1875 8.49998C0.1875 7.34565 0.404573 6.26284 0.838719 5.25156C1.27285 4.24027 1.86403 3.3605 2.61226 2.61226C3.3605 1.86403 4.24027 1.27285 5.25156 0.838719C6.26284 0.404573 7.34565 0.1875 8.49998 0.1875C9.65431 0.1875 10.7371 0.404573 11.7484 0.838719C12.7597 1.27285 13.6395 1.86403 14.3877 2.61226C15.1359 3.3605 15.7271 4.24027 16.1612 5.25156C16.5954 6.26284 16.8125 7.34565 16.8125 8.49998C16.8125 9.65431 16.5954 10.7371 16.1612 11.7484C15.7271 12.7597 15.1359 13.6395 14.3877 14.3877C13.6395 15.1359 12.7597 15.7271 11.7484 16.1612C10.7371 16.5954 9.65431 16.8125 8.49998 16.8125ZM8.49998 15.5C9.28972 15.5 10.0511 15.3729 10.7842 15.1189C11.5173 14.8648 12.1683 14.5094 12.737 14.0529C12.1683 13.6131 11.5258 13.2704 10.8095 13.0247C10.0932 12.7791 9.32338 12.6562 8.49998 12.6562C7.67657 12.6562 6.90533 12.7776 6.18626 13.0205C5.46718 13.2634 4.82608 13.6075 4.26294 14.0529C4.83169 14.5094 5.48262 14.8648 6.21572 15.1189C6.94881 15.3729 7.71023 15.5 8.49998 15.5ZM8.49998 7.84375C8.93523 7.84375 9.29926 7.69736 9.59207 7.40457C9.88486 7.11176 10.0312 6.74773 10.0312 6.31248C10.0312 5.87722 9.88486 5.5132 9.59207 5.22039C9.29926 4.9276 8.93523 4.78121 8.49998 4.78121C8.06472 4.78121 7.70069 4.9276 7.40789 5.22039C7.1151 5.5132 6.96871 5.87722 6.96871 6.31248C6.96871 6.74773 7.1151 7.11176 7.40789 7.40457C7.70069 7.69736 8.06472 7.84375 8.49998 7.84375Z" fill="black"/>
</svg>
