<svg width="16" height="17" viewBox="0 0 16 17" fill="none" xmlns="http://www.w3.org/2000/svg">
<g clip-path="url(#clip0_5873_1154)">
<path d="M15 4.01764V6.70646C13.6238 6.6805 12.2208 6.2475 11.1399 5.40841L11.1076 11.2957C10.8292 14.2762 8.58823 16.3778 5.4325 15.943C2.13754 15.489 0.286129 12.4302 1.25851 9.34088C2.00623 6.96514 4.3114 5.44766 6.86781 5.93412V8.83928C5.49927 8.59141 4.03452 9.28494 3.89751 10.744C3.6064 13.8411 7.95727 13.9258 8.31926 11.3541C8.36167 11.0528 8.33857 10.761 8.38825 10.4634L8.38698 0.000488281H11.0924C11.1652 0.000488281 11.1339 0.263189 11.1402 0.324691C11.2633 1.48737 11.7803 2.61853 12.7752 3.30186C13.4248 3.74783 14.2156 3.94656 15.0003 4.01826L15 4.01764Z" fill="#2B8C57"/>
</g>
<defs>
<clipPath id="clip0_5873_1154">
<rect width="14" height="16" fill="white" transform="translate(1)"/>
</clipPath>
</defs>
</svg>
